<svg xmlns="http://www.w3.org/2000/svg" xmlns:xlink="http://www.w3.org/1999/xlink" width="64" height="64" viewBox="0 0 64 64" fill="none"><path d="M48.0467 32.436C48.0467 24.1996 41.2147 17.4081 32.5199 16.9404C31.9484 16.909 31.5142 16.4483 31.5476 15.9144C31.581 15.3804 32.0671 14.9721 32.6349 15C42.4208 15.5305 50.11 23.1701 50.11 32.436C50.11 42.0824 41.8011 49.9 31.555 49.9C21.3089 49.9 13 42.0824 13 32.436C13 27.0789 15.5829 22.1301 19.8913 18.853L14.0317 18.853C13.4602 18.853 13 18.4202 13 17.8827C13 17.3488 13.4602 16.9125 14.0317 16.9125L22.2775 16.9125C22.8453 16.9125 23.3092 17.3488 23.3092 17.8827L23.3092 25.6445C23.3092 26.182 22.8453 26.6147 22.2775 26.6147C21.7097 26.6147 21.2458 26.182 21.2458 25.6445L21.2458 20.3188C17.3827 23.2294 15.0633 27.6478 15.0633 32.436C15.0633 41.011 22.4445 47.9596 31.555 47.9596C40.6655 47.9596 48.0467 41.011 48.0467 32.436Z" stroke="rgba(255, 255, 255, 1)" stroke-width="3"      fill="#FFFFFF" ></path></svg>